<svg xmlns="http://www.w3.org/2000/svg" xmlns:xlink="http://www.w3.org/1999/xlink" width="60" height="12" version="1.1" viewBox="0 0 60 12"><title>red1</title><g id="Page-1" fill="none" fill-rule="evenodd" stroke="none" stroke-width="1"><g id="star" transform="translate(0.000000, -56.000000)"><g id="red1" transform="translate(0.000000, 56.854102)"><polygon id="red5" fill="#C90000" points="5.706 9 2.18 10.854 2.853 6.927 0 4.146 3.943 3.573 5.706 0 7.47 3.573 11.413 4.146 8.56 6.927 9.233 10.854"/><polygon id="Star-1" fill="#9B9B9B" points="53.706 9 50.18 10.854 50.853 6.927 48 4.146 51.943 3.573 53.706 0 55.47 3.573 59.413 4.146 56.56 6.927 57.233 10.854"/><polygon id="Star-1" fill="#9B9B9B" points="41.706 9 38.18 10.854 38.853 6.927 36 4.146 39.943 3.573 41.706 0 43.47 3.573 47.413 4.146 44.56 6.927 45.233 10.854"/><polygon id="Star-1" fill="#9B9B9B" points="29.706 9 26.18 10.854 26.853 6.927 24 4.146 27.943 3.573 29.706 0 31.47 3.573 35.413 4.146 32.56 6.927 33.233 10.854"/><polygon id="Star-1" fill="#9B9B9B" points="17.706 9 14.18 10.854 14.853 6.927 12 4.146 15.943 3.573 17.706 0 19.47 3.573 23.413 4.146 20.56 6.927 21.233 10.854"/></g></g></g></svg>